# AST/ASF file generated using VICON BodyLanguage
# -----------------------------------------------
:version 1.10
:name VICON
:units
  mass 1.0
  length 0.45
  angle deg
:documentation
   .ast/.asf automatically generated from VICON data using
   VICON BodyBuilder and BodyLanguage model FoxedUp or BRILLIANT.MOD
:root
   order TX TY TZ RX RY RZ
   axis XYZ
   position 0 0 0  
   orientation 0 0 0 
:bonedata
  begin
     id 1 
     name lhipjoint
     direction 0.655637 -0.713449 0.247245 
     length 2.52691 
     axis 0 0 0  XYZ
  end
  begin
     id 2 
     name lfemur
     direction 0.34202 -0.939693 0  
     length 7.59371  
     axis 0 0 20  XYZ
    dof rx ry rz
    limits (-160.0 20.0)
           (-70.0 70.0)
           (-60.0 70.0)
  end
  begin
     id 3 
     name ltibia
     direction 0.34202 -0.939693 0   
     length 7.28717   
     axis 0 0 20   XYZ
    dof rx
    limits (-10.0 170.0)
  end
  begin
     id 4 
     name lfoot
     direction 0.0886837 -0.243657 0.965798   
     length 2.2218   
     axis -90 7.62852e-016 20   XYZ
    dof rx rz
    limits (-45.0 90.0)
           (-70.0 20.0)
  end
  begin
     id 5 
     name ltoes
     direction 1.53547e-011 -4.22004e-011 1   
     length 1.11249   
     axis -90 7.62852e-016 20   XYZ
    dof rx
    limits (-90.0 20.0)
  end
  begin
     id 6 
     name rhipjoint
     direction -0.645062 -0.722004 0.250209   
     length 2.49697  
     axis 0 0 0  XYZ 
  end
  begin
     id 7 
     name rfemur
     direction -0.34202 -0.939693 0   
     length 7.58734   
     axis 0 0 -20   XYZ
    dof rx ry rz
    limits (-160.0 20.0)
           (-70.0 70.0)
           (-70.0 60.0)
  end
  begin
     id 8 
     name rtibia
     direction -0.34202 -0.939693 0   
     length 7.21538   
     axis 0 0 -20   XYZ
    dof rx
    limits (-10.0 170.0)
 end
 begin
     id 9 
     name rfoot
     direction -0.102907 -0.282735 0.953662   
     length 2.23735  
     axis -90 -7.62852e-016 -20   XYZ
    dof rx rz
    limits (-45.0 90.0)
           (-20.0 70.0)
  end
  begin
     id 10 
     name rtoes
     direction -1.5354e-011 -4.21751e-011 1   
     length 1.11569   
     axis -90 -7.62852e-016 -20   XYZ
    dof rx
    limits (-90.0 20.0)
  end
  begin
     id 11 
     name lowerback
     direction 0.00952301 0.997604 -0.0685217   
     length 2.05943   
     axis 0 0 0   XYZ
    dof rx ry rz
    limits (-20.0 45.0)
           (-30.0 30.0)
           (-30.0 30.0)
  end
  begin
     id 12 
     name upperback
     direction 0.00494399 0.999577 -0.0286701   
     length 2.06523   
     axis 0 0 0   XYZ
    dof rx ry rz
    limits (-20.0 45.0)
           (-30.0 30.0)
           (-30.0 30.0)
  end
  begin
     id 13 
     name thorax
     direction 0.000729686 0.999992 0.00388603   
     length 2.06807   
     axis 0 0 0   XYZ
    dof rx ry rz
    limits (-20.0 45.0)
           (-30.0 30.0)
           (-30.0 30.0)
  end
  begin
     id 14 
     name lowerneck
     direction 0.00452882 0.995459 0.0950816   
     length 1.57426   
     axis 0 0 0   XYZ
    dof rx ry rz
    limits (-20.0 45.0)
           (-30.0 30.0)
           (-30.0 30.0)
  end
  begin
     id 15 
     name upperneck
     direction 0.021922 0.997711 -0.0639762   
     length 1.56399   
     axis 0 0 0   XYZ
    dof rx ry rz
    limits (-20.0 45.0)
           (-30.0 30.0)
           (-30.0 30.0)
  end
  begin
     id 16
     name head
     direction 0.008024 0.999444 -0.0323691  
     length 1.6265  
     axis 0 0 0   XYZ
    dof rx ry rz
    limits (-20.0 45.0)
           (-30.0 30.0)
           (-30.0 30.0)
  end
  begin
     id 17 
     name lclavicle
     direction 0.967826 0.247107 -0.0474446  
     length 3.6598  
     axis 0 0 0   XYZ
    dof ry rz
    limits (-20.0 10.0)
           (0.0 20.0)
  end
  begin
     id 18 
     name lhumerus
     direction 1 -4.48971e-011 -2.90544e-027   
     length 4.86513   
     axis 180 -30 -90   XYZ
    dof rx ry rz
    limits (-60.0 90.0)
           (-90.0 90.0)
           (-90.0 90.0)
  end
  begin
     id 19
     name lradius
     direction 1 -4.48958e-011 1.79638e-026   
     length 3.35554   
     axis 180 -30 -90   XYZ
    dof rx
    limits (-10.0 170.0)
  end
  begin
     id 20
     name lwrist
     direction 1 -4.48952e-011 3.34345e-026   
     length 1.67777   
     axis -2.22354e-014 90 90   XYZ
    dof ry
    limits (-180.0 0.0)
 end
  begin
     id 21 
     name lhand
     direction 1 -4.49055e-011 6.6869e-026   
     length 0.661175   
     axis -4.26681e-014 90 90   XYZ
    dof rx rz
    limits (-90.0 90.0)
           (-45.0 45.0)
  end
  begin
     id 22 
     name lfingers
     direction 1 -4.48731e-011 1.33738e-025   
     length 0.533057   
     axis -8.53362e-014 90 90   XYZ
    dof rx
    limits (0.0 90.0)
  end
  begin
     id 23
     name lthumb
     direction 0.707107 -6.35005e-011 0.707107   
     length 0.765366   
     axis -90 45 2.85299e-015   XYZ
    dof rx rz
    limits (-45.0 45.0)
           (-45.0 45.0)
  end
  begin
     id 24 
     name rclavicle
     direction -0.973174 0.211421 -0.0907389   
     length 3.59444  
     axis 0 0 0   XYZ 
    dof ry rz
    limits (-10.0 20.0)
           (-20.0 0.0)
  end
  begin
     id 25 
     name rhumerus
     direction -1 -4.48964e-011 1.56311e-027  
     length 5.02649   
     axis 180 30 90   XYZ
    dof rx ry rz
    limits (-90.0 60.0)
           (-90.0 90.0)
           (-90.0 90.0)
  end
  begin
     id 26 
     name rradius
     direction -1 -4.48948e-011 2.01724e-026   
     length 3.36431   
     axis 180 30 90   XYZ
    dof rx
    limits (-10.0 170.0)
  end
  begin
     id 27 
     name rwrist
     direction -1 -4.49008e-011 3.34345e-026   
     length 1.68216   
     axis -2.22354e-014 -90 -90   XYZ
    dof ry
    limits (-180.0 0.0)
  end
  begin
     id 28
     name rhand
     direction -1 -4.49013e-011 6.6869e-026   
     length 0.730406   
     axis -4.26681e-014 -90 -90   XYZ
    dof rx rz
    limits (-90.0 90.0)
           (-45.0 45.0)
  end
  begin
     id 29
     name rfingers
     direction -1 -4.48867e-011 1.33738e-025   
     length 0.588872   
     axis -8.53362e-014 -90 -90   XYZ
    dof rx
    limits (0.0 90.0)
  end
  begin
     id 30
     name rthumb
     direction -0.707107 -6.34907e-011 0.707107   
     length 0.845506   
     axis -90 -45 -2.85299e-015   XYZ
    dof rx rz
    limits (-45.0 45.0)
           (-45.0 45.0)
  end
:hierarchy
  begin
    root lhipjoint rhipjoint lowerback
    lhipjoint lfemur
    lfemur ltibia
    ltibia lfoot
    lfoot ltoes
    rhipjoint rfemur
    rfemur rtibia
    rtibia rfoot
    rfoot rtoes
    lowerback upperback
    upperback thorax
    thorax lowerneck lclavicle rclavicle
    lowerneck upperneck
    upperneck head
    lclavicle lhumerus
    lhumerus lradius
    lradius lwrist
    lwrist lhand lthumb
    lhand lfingers
    rclavicle rhumerus
    rhumerus rradius
    rradius rwrist
    rwrist rhand rthumb
    rhand rfingers
  end

#!OML:ASF H:\Terrain\Patient Classification 1\Takeo\Monday\TakeoMonday.ASF
:FULLY-SPECIFIED
:DEGREES
130
root 10.0361 24.8829 2.07294 0.219179 -2.96902 -0.973666
lowerback 2.97844 -0.0479137 1.54223
upperback -3.60017 0.022515 0.038727
thorax -5.39604 -0.0498512 -0.826055
lowerneck -11.1659 1.70739 -0.585645
upperneck 13.8299 2.80088 -2.39972
head 6.05684 1.14093 -0.427259
rclavicle -5.18393e-015 1.00386e-014
rhumerus -29.0836 25.7119 -100.753
rradius 68.0466
rwrist -21.2099
rhand -31.3055 30.4413
rfingers 7.12502
rthumb -4.57813 0.510821
lclavicle -5.18393e-015 1.00386e-014
lhumerus -34.2407 -20.3616 90.4278
lradius 53.7173
lwrist 20.6531
lhand -23.425 10.2871
lfingers 7.12502
lthumb 3.03264 40.2452
rfemur 7.67399 -2.2578 21.161
rtibia 19.5062
rfoot 5.30574 -14.3748
rtoes -11.0296
lfemur 4.86726 4.61412 -22.1366
ltibia 23.4031
lfoot 11.4316 17.518
ltoes -9.58176
131
root 10.0451 25.0595 2.11185 0.674773 -3.55949 -0.79601
lowerback 2.52024 -0.0176976 1.18829
upperback -3.91922 0.0417296 0.103406
thorax -5.46757 -0.0267372 -0.561735
lowerneck -10.5139 2.05244 -0.906796
upperneck 12.8424 3.18107 -1.7044
head 5.62074 1.38136 -0.136252
rclavicle 5.50929e-015 -1.77788e-014
rhumerus -30.5096 24.411 -101.577
rradius 66.8353
rwrist -20.9091
rhand -30.7084 30.5074
rfingers 7.12502
rthumb -4.00151 0.565262
lclavicle 5.50929e-015 -1.77788e-014
lhumerus -35.8544 -17.5585 91.0353
lradius 53.1171
lwrist 21.0076
lhand -22.9482 11.3432
lfingers 7.12502
lthumb 3.49308 41.2943
rfemur 6.82485 -2.49296 20.9598
rtibia 19.9638
rfoot 4.05781 -15.3249
rtoes -8.67367
lfemur 4.67432 5.27204 -22.3918
ltibia 22.639
lfoot 9.17392 17.9526
ltoes -12.9734
132
root 10.057 25.2178 2.13956 1.02219 -3.83514 -0.242034
lowerback 2.19259 -0.109635 0.439806
upperback -4.10405 -0.122624 0.089059
thorax -5.47447 -0.0780625 -0.145621
lowerneck -10.3896 2.21999 -1.27788
upperneck 12.2508 3.38323 -1.22607
head 5.40031 1.50567 0.0834559
rclavicle -1.0607e-014 4.17448e-015
rhumerus -31.8064 23.1486 -102.146
rradius 65.741
rwrist -20.6665
rhand -29.9784 30.913
rfingers 7.12502
rthumb -3.2966 0.958721
lclavicle -1.0607e-014 4.17448e-015
lhumerus -37.0251 -14.7112 91.3037
lradius 52.4046
lwrist 21.6374
lhand -22.0216 11.7387
lfingers 7.12502
lthumb 4.38787 41.6732
rfemur 6.17604 -3.12285 20.3217
rtibia 20.2042
rfoot 3.84632 -15.7563
rtoes -9.1839
lfemur 4.35003 5.88589 -23.0326
ltibia 22.2268
lfoot 9.68919 18.4854
ltoes -8.28726
133
root 10.0694 25.3609 2.14755 1.26914 -4.02533 -0.35854
lowerback 2.07283 -0.171288 0.433775
upperback -4.14271 -0.200725 0.202444
thorax -5.44653 -0.113998 -0.0196944
lowerneck -10.5261 2.25833 -1.19105
upperneck 11.8655 3.43237 -1.35441
head 5.30703 1.52869 0.0319012
rclavicle -1.49399e-014 -9.54166e-015
rhumerus -32.7517 21.4707 -102.353
rradius 64.7128
rwrist -20.1467
rhand -29.1368 31.227
rfingers 7.12502
rthumb -2.48385 1.26169
lclavicle -1.49399e-014 -9.54166e-015
lhumerus -37.8508 -12.0107 91.3187
lradius 51.6921
lwrist 22.1266
lhand -20.9032 12.3498
lfingers 7.12502
lthumb 5.46785 42.2593
rfemur 5.58109 -3.51856 20.5167
rtibia 20.4177
rfoot 4.28012 -16.0514
rtoes -11.1819
lfemur 3.98861 6.27637 -22.9427
ltibia 22.004
lfoot 9.88638 18.8922
ltoes -7.57294
134
root 10.078 25.4967 2.15508 1.42045 -4.43383 -0.688579
lowerback 1.95847 -0.0604027 0.728598
upperback -4.04834 -0.0392601 0.215577
thorax -5.28183 -0.0453338 -0.182461
lowerneck -10.7031 2.29093 -0.763892
upperneck 11.4519 3.41736 -1.47766
head 5.21715 1.53568 -0.0775759
rclavicle 5.41067e-015 -1.21134e-014
rhumerus -33.4122 19.371 -102.414
rradius 63.7318
rwrist -19.4805
rhand -28.7489 31.1892
rfingers 7.12502
rthumb -2.10918 1.21989
lclavicle 5.41067e-015 -1.21134e-014
lhumerus -38.5032 -9.74467 91.1354
lradius 50.9455
lwrist 22.873
lhand -20.043 13.2619
lfingers 7.12502
lthumb 6.29831 43.1483
rfemur 5.01132 -3.4321 20.9812
rtibia 20.7075
rfoot 4.29563 -16.3395
rtoes -11.2819
lfemur 3.73421 6.5509 -22.6426
ltibia 21.9096
lfoot 9.79461 19.2961
ltoes -8.03354
135
root 10.0874 25.6155 2.17277 1.3853 -4.83406 -0.339691
lowerback 1.90901 0.0751421 0.362222
upperback -3.96103 0.116058 0.0298225
thorax -5.16063 0.0428703 -0.179396
lowerneck -10.7502 2.28575 -0.786257
upperneck 11.1493 3.35928 -1.11072
head 5.12331 1.53477 0.0339257
rclavicle -2.32951e-015 -8.94531e-016
rhumerus -34.3054 17.444 -102.457
rradius 62.8975
rwrist -19.1373
rhand -28.8704 30.7602
rfingers 7.12502
rthumb -2.22659 0.792084
lclavicle -2.32951e-015 -8.94531e-016
lhumerus -39.2639 -7.50936 90.9284
lradius 50.0398
lwrist 23.6882
lhand -19.6513 14.3363
lfingers 7.12502
lthumb 6.67644 44.211
rfemur 4.71108 -3.49616 20.5947
rtibia 20.8967
rfoot 4.32998 -16.1436
rtoes -11.8219
lfemur 3.6397 6.67781 -23.1178
ltibia 22.0592
lfoot 9.18811 19.7934
ltoes -6.23872
136
root 10.1004 25.7068 2.18363 1.18742 -5.17247 0.00518036
lowerback 2.26912 0.15271 -0.100067
upperback -3.95707 0.196964 -0.00519951
thorax -5.36333 0.100778 0.0372001
lowerneck -10.9192 2.23505 -1.0867
upperneck 11.2455 3.30002 -0.78011
head 5.17055 1.51384 0.183627
rclavicle -1.22253e-014 -1.0753e-014
rhumerus -35.4323 15.6959 -102.31
rradius 62.0717
rwrist -19.0682
rhand -29.0601 30.3851
rfingers 7.12502
rthumb -2.40977 0.418962
lclavicle -1.22253e-014 -1.0753e-014
lhumerus -40.2454 -5.26803 90.8533
lradius 49.0251
lwrist 24.2955
lhand -20.1492 14.9042
lfingers 7.12502
lthumb 6.19577 44.7936
rfemur 4.60007 -3.74396 20.1387
rtibia 21.0582
rfoot 4.45962 -15.7067
rtoes -13.4198
lfemur 3.66771 6.99241 -23.5221
ltibia 22.2862
lfoot 8.91241 19.8294
ltoes -5.34882
137
root 10.1199 25.7904 2.18195 1.06569 -5.28656 -0.22935
lowerback 2.84529 0.147533 0.127759
upperback -3.98859 0.207247 0.0917431
thorax -5.72627 0.0984724 0.00753836
lowerneck -11.246 2.2057 -1.06006
upperneck 11.4965 3.27379 -0.842655
head 5.30526 1.49347 0.164063
rclavicle -8.05233e-016 -9.62553e-015
rhumerus -36.4065 13.9531 -102.036
rradius 61.0657
rwrist -19.0425
rhand -29.277 30.1663
rfingers 7.12502
rthumb -2.61923 0.202633
lclavicle -8.05233e-016 -9.62553e-015
lhumerus -41.1425 -3.46109 90.7003
lradius 47.8486
lwrist 24.6087
lhand -21.2551 14.491
lfingers 7.12502
lthumb 5.12807 44.409
rfemur 4.43111 -4.03214 20.3554
rtibia 21.1655
rfoot 4.62814 -15.4984
rtoes -14.2608
lfemur 3.52549 7.386 -23.2327
ltibia 22.6556
lfoot 8.77494 19.6178
ltoes -4.85428
138
root 10.143 25.8682 2.1816 0.901067 -5.16501 -0.669478
lowerback 3.41852 0.101409 0.77253
upperback -3.91508 0.187552 0.0984774
thorax -5.97657 0.0605018 -0.346738
lowerneck -11.4278 2.17095 -1.32031
upperneck 11.3843 3.20815 -0.373302
head 5.28818 1.48373 0.348618
rclavicle -6.42012e-015 1.22004e-014
rhumerus -37.1237 12.2318 -101.713
rradius 59.9095
rwrist -19.3683
rhand -29.6149 29.7868
rfingers 7.12502
rthumb -2.94558 -0.172555
lclavicle -6.42012e-015 1.22004e-014
lhumerus -41.7994 -1.89011 90.2691
lradius 46.5384
lwrist 24.2926
lhand -22.0535 14.8666
lfingers 7.12502
lthumb 4.35713 44.8018
rfemur 4.41284 -4.43907 20.8065
rtibia 21.1188
rfoot 4.67983 -15.4138
rtoes -14.3678
lfemur 3.29658 7.41314 -22.7374
ltibia 23.358
lfoot 8.29827 19.1633
ltoes -5.54098
139
root 10.1563 25.9289 2.16796 0.731987 -5.13316 -1.21161
lowerback 4.11466 0.0722532 1.3377
upperback -3.78852 0.19911 0.181091
thorax -6.24284 0.0423502 -0.580504
lowerneck -11.2539 2.10839 -1.54416
upperneck 10.7391 3.1193 -0.148497
head 5.05123 1.45347 0.439962
rclavicle -9.61621e-015 5.96354e-015
rhumerus -37.6714 10.9337 -101.273
rradius 58.6565
rwrist -20.1755
rhand -30.2789 29.0253
rfingers 7.12502
rthumb -3.58682 -0.924219
lclavicle -9.61621e-015 5.96354e-015
lhumerus -42.2185 -0.393312 89.6632
lradius 45.0806
lwrist 23.8784
lhand -22.445 16.0023
lfingers 7.12502
lthumb 3.97903 45.9449
rfemur 4.35635 -4.5619 21.4813
rtibia 21.0515
rfoot 4.99612 -15.5822
rtoes -14.0738
lfemur 2.90273 7.21665 -22.1147
ltibia 24.1929
lfoot 7.78386 18.5093
ltoes -8.4649
140
root 10.1712 25.9793 2.13329 0.836083 -5.14888 -1.8054
lowerback 4.8378 0.026269 1.91674
upperback -3.81029 0.204202 0.323052
thorax -6.68326 0.0183993 -0.759613
lowerneck -11.0016 2.10799 -1.20348
upperneck 10.0668 3.11714 -0.69331
head 4.81543 1.43715 0.20728
rclavicle 5.52249e-015 -1.04362e-014
rhumerus -38.1891 10.0647 -100.822
rradius 57.1582
rwrist -21.0969
rhand -31.2999 28.5966
rfingers 7.12502
rthumb -4.57275 -1.33407
lclavicle 5.52249e-015 -1.04362e-014
lhumerus -42.6773 0.85876 88.9994
lradius 43.4997
lwrist 23.6859
lhand -22.5402 15.1492
lfingers 7.12502
lthumb 3.88716 45.0935
rfemur 3.85254 -4.44557 22.2862
rtibia 21.0557
rfoot 5.57963 -15.9451
rtoes -13.9408
lfemur 2.14236 7.0595 -21.4545
ltibia 24.9888
lfoot 7.6843 17.7613
ltoes -10.1898
141
root 10.2006 26.015 2.1086 0.974266 -5.14669 -1.90191
lowerback 5.31162 0.0232662 2.20573
upperback -3.76602 0.235368 0.32032
thorax -6.90933 0.0180712 -0.929242
lowerneck -11.3061 2.15619 -1.2483
upperneck 9.76244 3.19283 -0.724507
head 4.77137 1.47235 0.211622
rclavicle 7.65632e-015 -2.43511e-015
rhumerus -38.4295 9.14466 -100.148
rradius 55.3886
rwrist -21.6692
rhand -32.2169 28.5512
rfingers 7.12502
rthumb -5.45813 -1.35847
lclavicle 7.65632e-015 -2.43511e-015
lhumerus -42.9511 1.82324 88.4589
lradius 41.8328
lwrist 23.4669
lhand -22.3822 11.8306
lfingers 7.12502
lthumb 4.03968 41.7721
rfemur 3.27172 -4.55571 22.3859
rtibia 21.1097
rfoot 5.81325 -15.9583
rtoes -14.0936
lfemur 1.38636 6.95087 -21.4069
ltibia 25.7869
lfoot 7.9831 17.0616
ltoes -9.34827
